#define bullet_width 9
#define bullet_height 9
static unsigned char bullet_bits[] = {
   0x0e, 0x00, 0x1c, 0x00, 0x38, 0x00, 0x70, 0x00, 0xe0, 0x00, 0x70, 0x00,
   0x38, 0x00, 0x1c, 0x00, 0x0e, 0x00 };
